<?xml version="1.0" encoding="UTF-8"?>
<!DOCTYPE svg PUBLIC "-//W3C//DTD SVG 1.1//EN" "http://www.w3.org/Graphics/SVG/1.1/DTD/svg11.dtd">
<svg xmlns="http://www.w3.org/2000/svg" version="1.1" width="500px" height="500px" style="shape-rendering:geometricPrecision; text-rendering:geometricPrecision; image-rendering:optimizeQuality; fill-rule:evenodd; clip-rule:evenodd" xmlns:xlink="http://www.w3.org/1999/xlink">
<g><path style="opacity:1" fill="#63a8d4" d="M 134.5,163.5 C 139.844,163.334 145.177,163.501 150.5,164C 151.167,164.667 151.833,165.333 152.5,166C 159.346,166.172 166.013,166.672 172.5,167.5C 161.5,167.5 150.5,167.5 139.5,167.5C 138.127,167.657 136.793,167.49 135.5,167C 135.833,166.667 136.167,166.333 136.5,166C 135.244,165.583 134.577,164.75 134.5,163.5 Z"/></g>
<g><path style="opacity:0.999" fill="#7dc4e3" d="M 198.5,167.5 C 199.441,184.139 199.775,200.805 199.5,217.5C 197.833,217.5 196.167,217.5 194.5,217.5C 194.829,202.324 194.496,187.324 193.5,172.5C 192.525,170.807 191.192,169.307 189.5,168C 183.843,167.501 178.176,167.334 172.5,167.5C 166.013,166.672 159.346,166.172 152.5,166C 151.833,165.333 151.167,164.667 150.5,164C 145.177,163.501 139.844,163.334 134.5,163.5C 135.842,162.207 137.509,161.374 139.5,161C 156.5,160.333 173.5,160.333 190.5,161C 194.231,162.011 196.898,164.177 198.5,167.5 Z"/></g>
<g><path style="opacity:0.995" fill="#588fbd" d="M 134.5,163.5 C 134.577,164.75 135.244,165.583 136.5,166C 136.167,166.333 135.833,166.667 135.5,167C 136.793,167.49 138.127,167.657 139.5,167.5C 139.167,168.167 138.833,168.833 138.5,169.5C 137.883,169.611 137.383,169.944 137,170.5C 136.503,173.146 136.336,175.813 136.5,178.5C 136.5,196.5 136.5,214.5 136.5,232.5C 136.5,233.5 136.5,234.5 136.5,235.5C 135.269,217.344 134.435,199.01 134,180.5C 130.158,176.439 129.325,171.772 131.5,166.5C 132.167,165.167 133.167,164.167 134.5,163.5 Z"/></g>
<g><path style="opacity:1" fill="#242d2f" d="M 138.5,169.5 C 143.049,169.997 147.549,170.997 152,172.5C 152.772,172.355 153.439,172.022 154,171.5C 154.309,172.766 154.809,173.933 155.5,175C 159.027,175.808 162.36,175.641 165.5,174.5C 166.791,174.737 167.791,174.404 168.5,173.5C 165.316,171.586 161.649,170.92 157.5,171.5C 157.167,171.5 156.833,171.5 156.5,171.5C 167.532,169.492 178.699,169.159 190,170.5C 191.681,176.435 191.181,182.268 188.5,188C 190.024,191.031 190.69,194.031 190.5,197C 188.342,198.312 188.009,199.978 189.5,202C 187.699,202.317 187.366,202.984 188.5,204C 186.833,206.155 185.833,208.655 185.5,211.5C 186.167,212.5 186.833,213.5 187.5,214.5C 185.255,216.567 184.921,218.9 186.5,221.5C 185.833,221.5 185.5,221.833 185.5,222.5C 183.095,223.768 180.428,224.435 177.5,224.5C 179.937,221.675 181.937,218.508 183.5,215C 182.366,213.984 182.699,213.317 184.5,213C 184.167,211.333 183.833,209.667 183.5,208C 184.167,207.333 184.833,206.667 185.5,206C 184.47,202.976 183.804,200.143 183.5,197.5C 185.991,196.459 185.991,195.626 183.5,195C 184.328,194.085 185.328,193.419 186.5,193C 185.736,190.931 185.236,188.764 185,186.5C 184.075,185.953 183.242,185.287 182.5,184.5C 186.532,181.162 186.365,178.162 182,175.5C 181.228,175.645 180.561,175.978 180,176.5C 178.328,171.916 176.328,171.249 174,174.5C 173.517,173.552 173.351,172.552 173.5,171.5C 172.5,171.5 171.5,171.5 170.5,171.5C 170.36,173.124 171.027,174.29 172.5,175C 168.782,176.087 165.948,178.253 164,181.5C 162.446,179.073 161.279,179.073 160.5,181.5C 159.127,181.657 157.793,181.49 156.5,181C 157.833,179.16 157.666,178.66 156,179.5C 152.624,179.024 149.624,177.69 147,175.5C 145.739,175.759 144.739,176.426 144,177.5C 142.318,177.193 140.652,176.86 139,176.5C 137.989,177.056 137.156,177.722 136.5,178.5C 136.336,175.813 136.503,173.146 137,170.5C 137.383,169.944 137.883,169.611 138.5,169.5 Z"/></g>
<g><path style="opacity:1" fill="#323a3f" d="M 160.5,181.5 C 159.4,182.605 158.733,183.938 158.5,185.5C 156.669,186.052 155.003,186.052 153.5,185.5C 150.867,186.301 149.033,187.967 148,190.5C 146.933,188.717 145.433,188.217 143.5,189C 142.534,191.099 141.2,192.932 139.5,194.5C 140.417,197.275 139.75,199.775 137.5,202C 138.758,204.185 138.758,206.352 137.5,208.5C 138.688,208.307 140.022,208.807 141.5,210C 140,210.833 138.833,212 138,213.5C 137.501,218.489 137.334,223.489 137.5,228.5C 137.768,230.099 137.434,231.432 136.5,232.5C 136.5,214.5 136.5,196.5 136.5,178.5C 137.156,177.722 137.989,177.056 139,176.5C 140.652,176.86 142.318,177.193 144,177.5C 144.739,176.426 145.739,175.759 147,175.5C 149.624,177.69 152.624,179.024 156,179.5C 157.666,178.66 157.833,179.16 156.5,181C 157.793,181.49 159.127,181.657 160.5,181.5 Z"/></g>
<g><path style="opacity:1" fill="#1d2629" d="M 139.5,167.5 C 150.5,167.5 161.5,167.5 172.5,167.5C 178.176,167.334 183.843,167.501 189.5,168C 191.192,169.307 192.525,170.807 193.5,172.5C 193.5,188.167 193.5,203.833 193.5,219.5C 193.5,219.833 193.5,220.167 193.5,220.5C 192.209,220.263 191.209,220.596 190.5,221.5C 189.833,221.833 189.167,222.167 188.5,222.5C 188.591,220.302 187.925,219.969 186.5,221.5C 184.921,218.9 185.255,216.567 187.5,214.5C 186.833,213.5 186.167,212.5 185.5,211.5C 185.833,208.655 186.833,206.155 188.5,204C 187.366,202.984 187.699,202.317 189.5,202C 188.009,199.978 188.342,198.312 190.5,197C 190.69,194.031 190.024,191.031 188.5,188C 191.181,182.268 191.681,176.435 190,170.5C 178.699,169.159 167.532,169.492 156.5,171.5C 156.5,172.5 156.5,173.5 156.5,174.5C 159.5,174.5 162.5,174.5 165.5,174.5C 162.36,175.641 159.027,175.808 155.5,175C 154.809,173.933 154.309,172.766 154,171.5C 153.439,172.022 152.772,172.355 152,172.5C 147.549,170.997 143.049,169.997 138.5,169.5C 138.833,168.833 139.167,168.167 139.5,167.5 Z"/></g>
<g><path style="opacity:1" fill="#2b5274" d="M 156.5,171.5 C 156.833,171.5 157.167,171.5 157.5,171.5C 160.684,173.414 164.351,174.08 168.5,173.5C 167.791,174.404 166.791,174.737 165.5,174.5C 162.5,174.5 159.5,174.5 156.5,174.5C 156.5,173.5 156.5,172.5 156.5,171.5 Z"/></g>
<g><path style="opacity:1" fill="#6caecf" d="M 157.5,171.5 C 161.649,170.92 165.316,171.586 168.5,173.5C 164.351,174.08 160.684,173.414 157.5,171.5 Z"/></g>
<g><path style="opacity:0.398" fill="#7eb2be" d="M 198.5,167.5 C 199.222,167.918 199.722,168.584 200,169.5C 200.182,185.211 200.682,200.878 201.5,216.5C 201.145,217.522 200.478,218.189 199.5,218.5C 199.5,218.167 199.5,217.833 199.5,217.5C 199.775,200.805 199.441,184.139 198.5,167.5 Z"/></g>
<g><path style="opacity:0.18" fill="#99c6d3" d="M 265.5,200.5 C 265.768,202.099 265.434,203.432 264.5,204.5C 261.316,202.586 257.649,201.92 253.5,202.5C 257.029,200.577 261.029,199.911 265.5,200.5 Z"/></g>
<g><path style="opacity:0.997" fill="#4071ae" d="M 131.5,166.5 C 129.325,171.772 130.158,176.439 134,180.5C 134.435,199.01 135.269,217.344 136.5,235.5C 137.853,237.128 137.519,238.462 135.5,239.5C 134.719,230.213 134.219,220.88 134,211.5C 132.476,209.102 130.976,206.769 129.5,204.5C 129.5,193.833 129.5,183.167 129.5,172.5C 129.259,170.102 129.926,168.102 131.5,166.5 Z"/></g>
<g><path style="opacity:1" fill="#68a0bd" d="M 220.5,211.5 C 218.5,211.5 216.5,211.5 214.5,211.5C 214.662,209.473 214.495,207.473 214,205.5C 212.989,204.663 211.822,204.33 210.5,204.5C 210.634,202.708 210.301,201.042 209.5,199.5C 215.457,196.995 217.457,198.829 215.5,205C 217.134,205.494 218.801,205.66 220.5,205.5C 220.5,207.5 220.5,209.5 220.5,211.5 Z"/></g>
<g><path style="opacity:0.994" fill="#6da1bb" d="M 240.5,205.5 C 237.715,206.084 236.048,205.084 235.5,202.5C 236.946,201.387 238.613,201.22 240.5,202C 241.684,203.145 241.684,204.312 240.5,205.5 Z"/></g>
<g><path style="opacity:0.831" fill="#759eae" d="M 360.5,220.5 C 361.209,221.404 362.209,221.737 363.5,221.5C 364.043,216.658 364.709,211.825 365.5,207C 364.926,205.393 364.26,203.893 363.5,202.5C 364.919,201.549 366.585,201.216 368.5,201.5C 367.196,208.461 366.029,215.461 365,222.5C 363.301,223.406 361.467,223.739 359.5,223.5C 359.263,222.209 359.596,221.209 360.5,220.5 Z"/></g>
<g><path style="opacity:0.063" fill="#3a5c72" d="M 265.5,200.5 C 266.451,201.919 266.784,203.585 266.5,205.5C 264.833,205.5 263.167,205.5 261.5,205.5C 262.209,204.596 263.209,204.263 264.5,204.5C 265.434,203.432 265.768,202.099 265.5,200.5 Z"/></g>
<g><path style="opacity:0.89" fill="#77b4d4" d="M 297.5,201.5 C 296.269,203.971 296.269,205.638 297.5,206.5C 304.199,206.274 306.199,209.274 303.5,215.5C 302.073,217.148 301.24,219.148 301,221.5C 299.841,220.434 299.008,220.767 298.5,222.5C 297.876,222.083 297.543,221.416 297.5,220.5C 298.01,217.593 298.677,214.759 299.5,212C 298.975,211.308 298.308,210.808 297.5,210.5C 296.678,212.139 296.011,213.805 295.5,215.5C 294.073,217.148 293.24,219.148 293,221.5C 292.014,220.829 290.847,220.829 289.5,221.5C 289.5,221.167 289.5,220.833 289.5,220.5C 290.11,219.609 290.443,218.609 290.5,217.5C 290.448,215.097 290.781,212.764 291.5,210.5C 291.5,209.833 291.5,209.167 291.5,208.5C 292.369,206.283 292.702,203.95 292.5,201.5C 294.398,200.904 296.065,200.904 297.5,201.5 Z"/></g>
<g><path style="opacity:0.278" fill="#4c626c" d="M 297.5,201.5 C 298.494,202.999 298.494,204.666 297.5,206.5C 296.269,205.638 296.269,203.971 297.5,201.5 Z"/></g>
<g><path style="opacity:0.799" fill="#83b9d3" d="M 338.5,220.5 C 339.338,220.158 339.672,219.492 339.5,218.5C 339.539,216.776 339.206,216.443 338.5,217.5C 337.746,214.977 337.08,212.311 336.5,209.5C 334.604,208.534 332.604,208.201 330.5,208.5C 329.632,211.673 329.632,214.673 330.5,217.5C 331.348,218.625 332.348,218.625 333.5,217.5C 334.434,218.568 334.768,219.901 334.5,221.5C 332.167,221.5 329.833,221.5 327.5,221.5C 326.883,221.389 326.383,221.056 326,220.5C 325.503,218.19 325.337,215.857 325.5,213.5C 325.5,213.167 325.5,212.833 325.5,212.5C 328.369,206.411 332.703,205.077 338.5,208.5C 339.154,210.115 339.654,211.782 340,213.5C 340.501,209.49 341.001,205.49 341.5,201.5C 343.167,201.5 344.833,201.5 346.5,201.5C 346.5,203.167 346.5,204.833 346.5,206.5C 349.044,206.104 351.211,206.771 353,208.5C 353.61,212.236 353.277,215.903 352,219.5C 349.151,223.553 345.818,224.22 342,221.5C 340.244,222.985 339.077,222.652 338.5,220.5 Z M 333.5,217.5 C 332.348,218.625 331.348,218.625 330.5,217.5C 329.887,214.031 331.221,212.031 334.5,211.5C 334.483,213.565 334.15,215.565 333.5,217.5 Z M 345.5,211.5 C 346.5,211.5 347.5,211.5 348.5,211.5C 348.326,213.861 347.993,216.194 347.5,218.5C 346.5,218.5 345.5,218.5 344.5,218.5C 344.674,216.139 345.007,213.806 345.5,211.5 Z"/></g>
<g><path style="opacity:0.027" fill="#1f282a" d="M 235.5,202.5 C 236.048,205.084 237.715,206.084 240.5,205.5C 240.5,207.167 240.5,208.833 240.5,210.5C 240.5,210.833 240.5,211.167 240.5,211.5C 240.167,211.5 239.833,211.5 239.5,211.5C 239.5,209.833 239.5,208.167 239.5,206.5C 237.833,206.5 236.167,206.5 234.5,206.5C 234.232,204.901 234.566,203.568 235.5,202.5 Z"/></g>
<g><path style="opacity:0.996" fill="#4c8ead" d="M 193.5,172.5 C 194.496,187.324 194.829,202.324 194.5,217.5C 196.167,217.5 197.833,217.5 199.5,217.5C 199.5,217.833 199.5,218.167 199.5,218.5C 199.5,218.833 199.5,219.167 199.5,219.5C 197.5,219.5 195.5,219.5 193.5,219.5C 193.5,203.833 193.5,188.167 193.5,172.5 Z"/></g>
<g><path style="opacity:0.159" fill="#3a454c" d="M 158.5,185.5 C 158.987,186.473 159.487,187.473 160,188.5C 160.991,187.061 162.324,186.061 164,185.5C 164.617,186.449 164.451,187.282 163.5,188C 168.536,189.036 171.536,192.036 172.5,197C 171.552,197.483 170.552,197.649 169.5,197.5C 169.903,200.406 171.569,202.239 174.5,203C 172.028,204.093 170.028,205.76 168.5,208C 169.833,209 171.167,210 172.5,211C 171.833,211.333 171.167,211.667 170.5,212C 171.109,214.058 172.109,214.891 173.5,214.5C 172.68,216.111 171.346,216.778 169.5,216.5C 169.649,217.552 169.483,218.552 169,219.5C 167.68,219.799 166.18,219.966 164.5,220C 164.658,221.587 163.991,223.087 162.5,224.5C 161.542,224.047 160.708,223.381 160,222.5C 159.383,223.449 159.549,224.282 160.5,225C 158.695,225.972 157.028,227.139 155.5,228.5C 153.533,227.318 152.2,227.985 151.5,230.5C 150.063,227.956 148.563,227.956 147,230.5C 144.527,225.297 142.694,225.631 141.5,231.5C 140.167,230.5 138.833,229.5 137.5,228.5C 137.334,223.489 137.501,218.489 138,213.5C 138.833,212 140,210.833 141.5,210C 140.022,208.807 138.688,208.307 137.5,208.5C 138.758,206.352 138.758,204.185 137.5,202C 139.75,199.775 140.417,197.275 139.5,194.5C 141.2,192.932 142.534,191.099 143.5,189C 145.433,188.217 146.933,188.717 148,190.5C 149.033,187.967 150.867,186.301 153.5,185.5C 155.003,186.052 156.669,186.052 158.5,185.5 Z"/></g>
<g><path style="opacity:0.704" fill="#3f4952" d="M 151.5,191.5 C 155.333,190.839 156.833,192.172 156,195.5C 158.358,197.024 160.191,199.024 161.5,201.5C 163.042,200.253 164.542,200.253 166,201.5C 166.219,200.062 166.719,198.729 167.5,197.5C 168.645,198.776 168.645,200.109 167.5,201.5C 168.04,202.748 168.707,203.915 169.5,205C 167.82,205.034 166.32,205.201 165,205.5C 162.493,208.182 161.993,211.182 163.5,214.5C 163,215.5 162.5,216.5 162,217.5C 161,217.167 160,216.833 159,216.5C 158.12,218.739 156.62,220.405 154.5,221.5C 152.5,220.167 150.833,218.5 149.5,216.5C 148.086,217.624 146.586,218.624 145,219.5C 144.626,218.584 144.126,217.75 143.5,217C 145.762,216.358 147.929,215.525 150,214.5C 151.903,214.694 153.737,214.694 155.5,214.5C 153.04,213.353 150.54,211.686 148,209.5C 147.667,209.833 147.333,210.167 147,210.5C 146.164,207.448 144.664,205.615 142.5,205C 142.833,204.5 143.167,204 143.5,203.5C 146.889,204.409 150.223,205.409 153.5,206.5C 158.182,206.105 159.516,203.772 157.5,199.5C 155.554,201.087 154.054,200.754 153,198.5C 152.343,201.685 150.343,203.352 147,203.5C 145.513,202.747 145.346,201.914 146.5,201C 143.057,200.779 142.724,199.779 145.5,198C 144.377,196.956 143.044,196.29 141.5,196C 144.514,195.872 147.514,195.872 150.5,196C 151.328,195.085 152.328,194.419 153.5,194C 152.244,193.583 151.577,192.75 151.5,191.5 Z"/></g>
<g><path style="opacity:0.927" fill="#6ba8c9" d="M 253.5,202.5 C 257.649,201.92 261.316,202.586 264.5,204.5C 263.209,204.263 262.209,204.596 261.5,205.5C 261.388,210.614 260.721,215.614 259.5,220.5C 257.902,220.61 256.235,220.943 254.5,221.5C 254.887,216.126 255.554,210.793 256.5,205.5C 253.506,205.854 252.506,204.854 253.5,202.5 Z"/></g>
<g><path style="opacity:0.84" fill="#7bb5d4" d="M 326.5,204.5 C 325.442,205.6 324.608,206.934 324,208.5C 323.667,211.5 323.333,214.5 323,217.5C 322.667,217.167 322.333,216.833 322,216.5C 321.994,219.264 320.828,221.264 318.5,222.5C 318.75,219.786 318.917,217.119 319,214.5C 316.411,219.938 314.745,219.605 314,213.5C 313.461,216.529 312.794,219.529 312,222.5C 310.035,223.885 308.202,223.718 306.5,222C 308.526,214.99 309.86,207.823 310.5,200.5C 312.288,200.215 313.955,200.548 315.5,201.5C 316.18,203.889 317.014,206.222 318,208.5C 319.167,206.167 320.333,203.833 321.5,201.5C 323.045,200.548 324.712,200.215 326.5,200.5C 326.5,201.833 326.5,203.167 326.5,204.5 Z"/></g>
<g><path style="opacity:0.666" fill="#87bdd7" d="M 377.5,221.5 C 374.5,221.5 371.5,221.5 368.5,221.5C 365.682,211.503 369.348,206.67 379.5,207C 382.167,209.667 382.167,212.333 379.5,215C 377.196,215.895 374.862,216.729 372.5,217.5C 374.413,218.051 376.413,218.218 378.5,218C 379.8,219.579 379.466,220.745 377.5,221.5 Z M 374.5,210.5 C 375.773,211.077 375.773,211.743 374.5,212.5C 373.537,212.03 373.537,211.363 374.5,210.5 Z"/></g>
<g><path style="opacity:0.839" fill="#5e96b6" d="M 267.5,208.5 C 268.952,209.302 270.618,209.802 272.5,210C 273.774,210.977 273.774,211.811 272.5,212.5C 271.833,211.167 271.167,211.167 270.5,212.5C 271.918,214.308 273.918,214.975 276.5,214.5C 273.94,215.588 271.606,216.921 269.5,218.5C 268.698,217.048 268.198,215.382 268,213.5C 267.296,215.727 266.129,216.06 264.5,214.5C 264.461,211.911 265.461,209.911 267.5,208.5 Z"/></g>
<g><path style="opacity:0.754" fill="#7db6d3" d="M 290.5,208.5 C 289.469,209.249 288.302,209.915 287,210.5C 283.331,208.991 281.831,210.324 282.5,214.5C 282.5,215.833 282.5,217.167 282.5,218.5C 283.959,218.567 285.292,218.234 286.5,217.5C 286.461,218.583 286.127,219.583 285.5,220.5C 283.257,221.474 280.924,221.808 278.5,221.5C 277.935,219.048 277.268,216.715 276.5,214.5C 273.918,214.975 271.918,214.308 270.5,212.5C 271.167,212.5 271.833,212.5 272.5,212.5C 273.774,211.811 273.774,210.977 272.5,210C 270.618,209.802 268.952,209.302 267.5,208.5C 272.044,205.315 275.877,205.982 279,210.5C 281.513,206.788 285.013,205.622 289.5,207C 290.056,207.383 290.389,207.883 290.5,208.5 Z"/></g>
<g><path style="opacity:0.545" fill="#456d80" d="M 290.5,208.5 C 290.833,208.5 291.167,208.5 291.5,208.5C 291.5,209.167 291.5,209.833 291.5,210.5C 289.422,213.071 287.256,213.071 285,210.5C 284.066,211.858 283.232,213.192 282.5,214.5C 281.831,210.324 283.331,208.991 287,210.5C 288.302,209.915 289.469,209.249 290.5,208.5 Z"/></g>
<g><path style="opacity:0.15" fill="#2e373c" d="M 177.5,224.5 C 169.356,227.104 161.356,230.104 153.5,233.5C 150.673,234.108 148.007,235.108 145.5,236.5C 143.633,235.24 142.3,233.573 141.5,231.5C 142.694,225.631 144.527,225.297 147,230.5C 148.563,227.956 150.063,227.956 151.5,230.5C 152.2,227.985 153.533,227.318 155.5,228.5C 157.028,227.139 158.695,225.972 160.5,225C 159.549,224.282 159.383,223.449 160,222.5C 160.708,223.381 161.542,224.047 162.5,224.5C 162.369,225.239 162.536,225.906 163,226.5C 163.36,223.572 164.693,222.906 167,224.5C 169.862,223.972 172.696,223.305 175.5,222.5C 176.083,220.452 176.083,218.619 175.5,217C 176.715,214.904 177.549,215.071 178,217.5C 179.025,213.805 180.525,210.305 182.5,207C 181.739,204.575 180.072,203.242 177.5,203C 178.214,201.657 177.88,200.324 176.5,199C 178.001,197.748 179.668,196.748 181.5,196C 181.167,195.667 180.833,195.333 180.5,195C 182.957,193.846 182.957,192.512 180.5,191C 181.451,190.282 181.617,189.449 181,188.5C 179.833,187.333 178.667,186.167 177.5,185C 173.699,184.11 170.033,182.943 166.5,181.5C 166.649,182.552 166.483,183.552 166,184.5C 164.538,182.852 162.705,181.852 160.5,181.5C 161.279,179.073 162.446,179.073 164,181.5C 165.948,178.253 168.782,176.087 172.5,175C 171.027,174.29 170.36,173.124 170.5,171.5C 171.5,171.5 172.5,171.5 173.5,171.5C 173.351,172.552 173.517,173.552 174,174.5C 176.328,171.249 178.328,171.916 180,176.5C 180.561,175.978 181.228,175.645 182,175.5C 186.365,178.162 186.532,181.162 182.5,184.5C 183.242,185.287 184.075,185.953 185,186.5C 185.236,188.764 185.736,190.931 186.5,193C 185.328,193.419 184.328,194.085 183.5,195C 185.991,195.626 185.991,196.459 183.5,197.5C 183.804,200.143 184.47,202.976 185.5,206C 184.833,206.667 184.167,207.333 183.5,208C 183.833,209.667 184.167,211.333 184.5,213C 182.699,213.317 182.366,213.984 183.5,215C 181.937,218.508 179.937,221.675 177.5,224.5 Z"/></g>
<g><path style="opacity:1" fill="#66a2c6" d="M 207.5,207.5 C 209.265,208.461 211.265,208.795 213.5,208.5C 213.5,210.167 213.5,211.833 213.5,213.5C 210.789,213.815 208.456,213.148 206.5,211.5C 206.232,209.901 206.566,208.568 207.5,207.5 Z"/></g>
<g><path style="opacity:1" fill="#76afcc" d="M 240.5,210.5 C 244.167,210.5 247.833,210.5 251.5,210.5C 251.768,212.099 251.434,213.432 250.5,214.5C 246.818,214.665 243.152,214.499 239.5,214C 240.252,213.329 240.586,212.496 240.5,211.5C 240.5,211.167 240.5,210.833 240.5,210.5 Z"/></g>
<g><path style="opacity:0.832" fill="#84c4e7" d="M 363.5,202.5 C 364.26,203.893 364.926,205.393 365.5,207C 364.709,211.825 364.043,216.658 363.5,221.5C 362.209,221.737 361.209,221.404 360.5,220.5C 360.872,214.268 361.872,208.268 363.5,202.5 Z"/></g>
<g><path style="opacity:0.171" fill="#343d43" d="M 160.5,181.5 C 162.705,181.852 164.538,182.852 166,184.5C 166.483,183.552 166.649,182.552 166.5,181.5C 170.033,182.943 173.699,184.11 177.5,185C 178.667,186.167 179.833,187.333 181,188.5C 181.617,189.449 181.451,190.282 180.5,191C 182.957,192.512 182.957,193.846 180.5,195C 180.833,195.333 181.167,195.667 181.5,196C 179.668,196.748 178.001,197.748 176.5,199C 177.88,200.324 178.214,201.657 177.5,203C 180.072,203.242 181.739,204.575 182.5,207C 180.525,210.305 179.025,213.805 178,217.5C 177.549,215.071 176.715,214.904 175.5,217C 176.083,218.619 176.083,220.452 175.5,222.5C 172.696,223.305 169.862,223.972 167,224.5C 164.693,222.906 163.36,223.572 163,226.5C 162.536,225.906 162.369,225.239 162.5,224.5C 163.991,223.087 164.658,221.587 164.5,220C 166.18,219.966 167.68,219.799 169,219.5C 169.483,218.552 169.649,217.552 169.5,216.5C 171.346,216.778 172.68,216.111 173.5,214.5C 172.109,214.891 171.109,214.058 170.5,212C 171.167,211.667 171.833,211.333 172.5,211C 171.167,210 169.833,209 168.5,208C 170.028,205.76 172.028,204.093 174.5,203C 171.569,202.239 169.903,200.406 169.5,197.5C 170.552,197.649 171.552,197.483 172.5,197C 171.536,192.036 168.536,189.036 163.5,188C 164.451,187.282 164.617,186.449 164,185.5C 162.324,186.061 160.991,187.061 160,188.5C 159.487,187.473 158.987,186.473 158.5,185.5C 158.733,183.938 159.4,182.605 160.5,181.5 Z"/></g>
<g><path style="opacity:0.835" fill="#2a353d" d="M 209.5,199.5 C 210.301,201.042 210.634,202.708 210.5,204.5C 211.822,204.33 212.989,204.663 214,205.5C 214.495,207.473 214.662,209.473 214.5,211.5C 216.5,211.5 218.5,211.5 220.5,211.5C 220.343,214.318 219.009,216.318 216.5,217.5C 213.239,218.378 209.906,219.044 206.5,219.5C 205.941,216.724 205.941,214.058 206.5,211.5C 208.456,213.148 210.789,213.815 213.5,213.5C 213.5,211.833 213.5,210.167 213.5,208.5C 211.265,208.795 209.265,208.461 207.5,207.5C 207.337,205.143 207.503,202.81 208,200.5C 208.383,199.944 208.883,199.611 209.5,199.5 Z"/></g>
<g><path style="opacity:0.782" fill="#6599b6" d="M 338.5,217.5 C 338.5,218.167 338.833,218.5 339.5,218.5C 339.672,219.492 339.338,220.158 338.5,220.5C 338.565,220.062 338.399,219.728 338,219.5C 334.846,223.3 331.346,223.967 327.5,221.5C 329.833,221.5 332.167,221.5 334.5,221.5C 334.768,219.901 334.434,218.568 333.5,217.5C 334.15,215.565 334.483,213.565 334.5,211.5C 331.221,212.031 329.887,214.031 330.5,217.5C 329.632,214.673 329.632,211.673 330.5,208.5C 332.604,208.201 334.604,208.534 336.5,209.5C 337.08,212.311 337.746,214.977 338.5,217.5 Z"/></g>
<g><path style="opacity:0.443" fill="#456b7e" d="M 239.5,211.5 C 239.833,211.5 240.167,211.5 240.5,211.5C 240.586,212.496 240.252,213.329 239.5,214C 243.152,214.499 246.818,214.665 250.5,214.5C 247.023,215.323 243.356,215.823 239.5,216C 238.891,217.948 238.224,219.782 237.5,221.5C 237.335,218.482 237.502,215.482 238,212.5C 238.383,211.944 238.883,211.611 239.5,211.5 Z"/></g>
<g><path style="opacity:0.758" fill="#7db4cf" d="M 356.5,201.5 C 358.167,201.5 359.833,201.5 361.5,201.5C 360.745,208.539 359.745,215.539 358.5,222.5C 356.833,222.5 355.167,222.5 353.5,222.5C 353.516,216.565 354.849,211.065 357.5,206C 356.62,204.644 356.286,203.144 356.5,201.5 Z"/></g>
<g><path style="opacity:0.998" fill="#6eb0d5" d="M 234.5,206.5 C 236.167,206.5 237.833,206.5 239.5,206.5C 239.5,208.167 239.5,209.833 239.5,211.5C 238.883,211.611 238.383,211.944 238,212.5C 237.502,215.482 237.335,218.482 237.5,221.5C 236.167,221.5 234.833,221.5 233.5,221.5C 233.5,219.833 233.5,218.167 233.5,216.5C 233.833,213.167 234.167,209.833 234.5,206.5 Z"/></g>
<g><path style="opacity:1" fill="#77badd" d="M 269.5,218.5 C 270.833,218.167 272.167,217.833 273.5,217.5C 273.833,218.833 274.167,220.167 274.5,221.5C 271.098,221.658 267.764,221.324 264.5,220.5C 264.5,218.5 264.5,216.5 264.5,214.5C 266.129,216.06 267.296,215.727 268,213.5C 268.198,215.382 268.698,217.048 269.5,218.5 Z"/></g>
<g><path style="opacity:0.451" fill="#567883" d="M 303.5,215.5 C 303.477,217.927 302.977,220.26 302,222.5C 301.014,223.171 299.847,223.171 298.5,222.5C 299.008,220.767 299.841,220.434 301,221.5C 301.24,219.148 302.073,217.148 303.5,215.5 Z"/></g>
<g><path style="opacity:0.573" fill="#5f828f" d="M 326.5,204.5 C 325.908,207.127 325.575,209.794 325.5,212.5C 325.5,212.833 325.5,213.167 325.5,213.5C 324.806,216.421 323.973,219.421 323,222.5C 321.522,222.79 320.022,222.79 318.5,222.5C 320.828,221.264 321.994,219.264 322,216.5C 322.333,216.833 322.667,217.167 323,217.5C 323.333,214.5 323.667,211.5 324,208.5C 324.608,206.934 325.442,205.6 326.5,204.5 Z"/></g>
<g><path style="opacity:0.663" fill="#619098" d="M 206.5,222.5 C 206.918,221.778 207.584,221.278 208.5,221C 203.512,220.913 198.512,221.08 193.5,221.5C 193.5,221.167 193.5,220.833 193.5,220.5C 195.735,220.795 197.735,220.461 199.5,219.5C 201.833,219.5 204.167,219.5 206.5,219.5C 209.906,219.044 213.239,218.378 216.5,217.5C 218.06,217.481 219.56,217.148 221,216.5C 222.28,216.613 223.113,217.28 223.5,218.5C 217.956,220.342 212.289,221.676 206.5,222.5 Z"/></g>
<g><path style="opacity:0.451" fill="#486067" d="M 273.5,217.5 C 276.884,218.244 277.218,219.577 274.5,221.5C 274.167,220.167 273.833,218.833 273.5,217.5 Z"/></g>
<g><path style="opacity:0.902" fill="#466d82" d="M 286.5,217.5 C 287.964,218.405 289.298,218.405 290.5,217.5C 290.443,218.609 290.11,219.609 289.5,220.5C 285.929,223.663 282.262,223.997 278.5,221.5C 280.924,221.808 283.257,221.474 285.5,220.5C 286.127,219.583 286.461,218.583 286.5,217.5 Z"/></g>
<g><path style="opacity:0.196" fill="#2f4f63" d="M 233.5,216.5 C 233.5,218.167 233.5,219.833 233.5,221.5C 234.833,221.5 236.167,221.5 237.5,221.5C 236.448,223.256 234.781,223.923 232.5,223.5C 232.198,220.941 232.532,218.607 233.5,216.5 Z"/></g>
<g><path style="opacity:0.467" fill="#375262" d="M 259.5,220.5 C 258.928,223.244 257.262,224.077 254.5,223C 253.262,222.31 253.262,221.81 254.5,221.5C 256.235,220.943 257.902,220.61 259.5,220.5 Z"/></g>
<g><path style="opacity:0.688" fill="#365d79" d="M 264.5,220.5 C 267.764,221.324 271.098,221.658 274.5,221.5C 270.847,224.421 267.514,224.087 264.5,220.5 Z"/></g>
<g><path style="opacity:0.161" fill="#4a6f7e" d="M 295.5,215.5 C 296.311,219.55 294.811,222.216 291,223.5C 290.283,222.956 289.783,222.289 289.5,221.5C 290.847,220.829 292.014,220.829 293,221.5C 293.24,219.148 294.073,217.148 295.5,215.5 Z"/></g>
<g><path style="opacity:0.675" fill="#3c637f" d="M 368.5,221.5 C 371.5,221.5 374.5,221.5 377.5,221.5C 374.461,224.017 371.461,224.017 368.5,221.5 Z"/></g>
<g><path style="opacity:0.086" fill="#19274a" d="M 129.5,172.5 C 129.5,183.167 129.5,193.833 129.5,204.5C 129.5,216.5 129.5,228.5 129.5,240.5C 131.5,240.167 133.5,239.833 135.5,239.5C 135.5,239.833 135.5,240.167 135.5,240.5C 134.508,240.328 133.842,240.662 133.5,241.5C 131.883,242.038 130.216,242.371 128.5,242.5C 128.169,218.994 128.502,195.661 129.5,172.5 Z"/></g>
<g><path style="opacity:0.557" fill="#266766" d="M 206.5,222.5 C 204.698,223.458 202.698,224.125 200.5,224.5C 201.918,222.692 203.918,222.025 206.5,222.5 Z"/></g>
<g><path style="opacity:0.999" fill="#2b579e" d="M 129.5,204.5 C 130.976,206.769 132.476,209.102 134,211.5C 134.219,220.88 134.719,230.213 135.5,239.5C 133.5,239.833 131.5,240.167 129.5,240.5C 129.5,228.5 129.5,216.5 129.5,204.5 Z"/></g>
<g><path style="opacity:0.997" fill="#70b6d7" d="M 206.5,222.5 C 203.918,222.025 201.918,222.692 200.5,224.5C 200.167,224.5 199.833,224.5 199.5,224.5C 188.169,226.222 176.836,228.055 165.5,230C 162.691,231.093 160.024,232.26 157.5,233.5C 156.167,233.5 154.833,233.5 153.5,233.5C 161.356,230.104 169.356,227.104 177.5,224.5C 180.428,224.435 183.095,223.768 185.5,222.5C 186.5,222.5 187.5,222.5 188.5,222.5C 189.167,222.167 189.833,221.833 190.5,221.5C 191.5,221.5 192.5,221.5 193.5,221.5C 198.512,221.08 203.512,220.913 208.5,221C 207.584,221.278 206.918,221.778 206.5,222.5 Z"/></g>
<g><path style="opacity:0.996" fill="#5a97c3" d="M 199.5,224.5 C 196.381,225.87 193.048,226.87 189.5,227.5C 185.273,227.744 181.273,228.744 177.5,230.5C 170.804,231.526 164.138,232.526 157.5,233.5C 160.024,232.26 162.691,231.093 165.5,230C 176.836,228.055 188.169,226.222 199.5,224.5 Z"/></g>
<g><path style="opacity:0.902" fill="#2b425f" d="M 189.5,227.5 C 183.603,230.919 177.27,233.586 170.5,235.5C 172.34,233.086 174.673,231.419 177.5,230.5C 181.273,228.744 185.273,227.744 189.5,227.5 Z"/></g>
<g><path style="opacity:0.997" fill="#487bb3" d="M 177.5,230.5 C 174.673,231.419 172.34,233.086 170.5,235.5C 166.088,237.183 161.755,237.85 157.5,237.5C 155.216,237.975 153.216,238.975 151.5,240.5C 150.258,239.957 148.925,239.623 147.5,239.5C 142.618,241.08 137.618,242.413 132.5,243.5C 132.833,242.833 133.167,242.167 133.5,241.5C 134.492,241.672 135.158,241.338 135.5,240.5C 138.833,239.167 142.167,237.833 145.5,236.5C 148.007,235.108 150.673,234.108 153.5,233.5C 154.833,233.5 156.167,233.5 157.5,233.5C 164.138,232.526 170.804,231.526 177.5,230.5 Z"/></g>
<g><path style="opacity:1" fill="#263759" d="M 170.5,235.5 C 167.001,237.75 163.335,239.75 159.5,241.5C 160.791,239.41 160.124,238.076 157.5,237.5C 161.755,237.85 166.088,237.183 170.5,235.5 Z"/></g>
<g><path style="opacity:0.998" fill="#254284" d="M 157.5,237.5 C 160.124,238.076 160.791,239.41 159.5,241.5C 153.923,244.74 148.923,248.74 144.5,253.5C 141.53,255.029 140.864,257.362 142.5,260.5C 141.311,261.429 139.978,261.762 138.5,261.5C 137.542,261.047 136.708,260.381 136,259.5C 135.667,257.5 135.333,255.5 135,253.5C 134.292,254.381 133.458,255.047 132.5,255.5C 129.611,257.775 128.944,260.608 130.5,264C 129.207,264.49 127.873,264.657 126.5,264.5C 123.832,263.543 122.332,261.543 122,258.5C 119.866,260.803 118.366,263.469 117.5,266.5C 118.133,268.786 119.466,270.452 121.5,271.5C 120.081,272.451 118.415,272.784 116.5,272.5C 109.503,270.494 107.67,266.161 111,259.5C 112.039,258.29 113.206,257.29 114.5,256.5C 117.111,255.066 119.611,253.399 122,251.5C 123.789,252.409 125.623,252.576 127.5,252C 129.167,250.833 130.833,249.667 132.5,248.5C 134.368,248.946 136.201,249.279 138,249.5C 142.169,245.844 146.669,242.844 151.5,240.5C 153.216,238.975 155.216,237.975 157.5,237.5 Z"/></g>
<g><path style="opacity:0.365" fill="#94ccc0" d="M 374.5,244.5 C 374.5,245.167 374.5,245.833 374.5,246.5C 373.027,245.928 371.693,245.095 370.5,244C 348.503,243.5 326.503,243.333 304.5,243.5C 280.661,243.169 256.994,243.502 233.5,244.5C 232.957,244.44 232.624,244.107 232.5,243.5C 278.83,242.333 325.163,242.167 371.5,243C 372.737,243.232 373.737,243.732 374.5,244.5 Z"/></g>
<g><path style="opacity:1" fill="#51b979" d="M 233.5,244.5 C 250.503,244.333 267.503,244.5 284.5,245C 285.696,245.654 285.696,246.154 284.5,246.5C 280.892,245.549 280.892,246.382 284.5,249C 292.011,249.171 299.345,249.671 306.5,250.5C 284.474,250.79 262.474,250.457 240.5,249.5C 237.326,248.99 234.992,247.323 233.5,244.5 Z"/></g>
<g><path style="opacity:1" fill="#61be88" d="M 233.5,244.5 C 256.994,243.502 280.661,243.169 304.5,243.5C 323.996,244.332 343.662,244.832 363.5,245C 365.384,247.884 367.884,250.051 371,251.5C 371.414,251.043 371.914,250.709 372.5,250.5C 373.452,252.045 373.785,253.712 373.5,255.5C 370.833,254.5 368.167,253.5 365.5,252.5C 346.195,250.512 326.528,249.846 306.5,250.5C 299.345,249.671 292.011,249.171 284.5,249C 280.892,246.382 280.892,245.549 284.5,246.5C 285.696,246.154 285.696,245.654 284.5,245C 267.503,244.5 250.503,244.333 233.5,244.5 Z"/></g>
<g><path style="opacity:0.998" fill="#6fc396" d="M 304.5,243.5 C 326.503,243.333 348.503,243.5 370.5,244C 371.693,245.095 373.027,245.928 374.5,246.5C 384.381,252.25 388.714,260.583 387.5,271.5C 386.948,267.947 384.948,265.614 381.5,264.5C 380.103,262.018 379.269,259.352 379,256.5C 378.667,256.833 378.333,257.167 378,257.5C 376.67,256.418 375.17,255.751 373.5,255.5C 373.785,253.712 373.452,252.045 372.5,250.5C 371.914,250.709 371.414,251.043 371,251.5C 367.884,250.051 365.384,247.884 363.5,245C 343.662,244.832 323.996,244.332 304.5,243.5 Z"/></g>
<g><path style="opacity:0.995" fill="#2b569f" d="M 151.5,240.5 C 146.669,242.844 142.169,245.844 138,249.5C 136.201,249.279 134.368,248.946 132.5,248.5C 130.833,249.667 129.167,250.833 127.5,252C 125.623,252.576 123.789,252.409 122,251.5C 119.611,253.399 117.111,255.066 114.5,256.5C 119.377,250.625 125.377,246.291 132.5,243.5C 137.618,242.413 142.618,241.08 147.5,239.5C 148.925,239.623 150.258,239.957 151.5,240.5 Z"/></g>
<g><path style="opacity:0.752" fill="#278456" d="M 240.5,249.5 C 262.474,250.457 284.474,250.79 306.5,250.5C 326.528,249.846 346.195,250.512 365.5,252.5C 325.832,252.667 286.165,252.5 246.5,252C 244.148,251.76 242.148,250.927 240.5,249.5 Z"/></g>
<g><path style="opacity:0.31" fill="#7eaaa9" d="M 374.5,244.5 C 388.041,251.91 392.374,262.91 387.5,277.5C 387.5,275.5 387.5,273.5 387.5,271.5C 388.714,260.583 384.381,252.25 374.5,246.5C 374.5,245.833 374.5,245.167 374.5,244.5 Z"/></g>
<g><path style="opacity:0.957" fill="#7b8286" d="M 362.5,257.5 C 360.5,257.5 358.5,257.5 356.5,257.5C 357.574,255.784 359.241,254.784 361.5,254.5C 362.386,255.325 362.719,256.325 362.5,257.5 Z"/></g>
<g><path style="opacity:0.024" fill="#0b0e0e" d="M 356.5,258.5 C 356.5,258.167 356.5,257.833 356.5,257.5C 358.5,257.5 360.5,257.5 362.5,257.5C 362.823,263.69 362.49,269.69 361.5,275.5C 361.5,275.167 361.5,274.833 361.5,274.5C 361.5,269.167 361.5,263.833 361.5,258.5C 359.833,258.5 358.167,258.5 356.5,258.5 Z"/></g>
<g><path style="opacity:0.908" fill="#e8e9ea" d="M 228.5,263.5 C 228.5,267.167 228.5,270.833 228.5,274.5C 225.167,274.5 221.833,274.5 218.5,274.5C 218.5,270.833 218.5,267.167 218.5,263.5C 218.5,261.5 218.5,259.5 218.5,257.5C 220.167,257.5 221.833,257.5 223.5,257.5C 223.334,261.846 223.501,266.179 224,270.5C 224.497,268.19 224.663,265.857 224.5,263.5C 225.833,263.5 227.167,263.5 228.5,263.5 Z"/></g>
<g><path style="opacity:0.955" fill="#e3e4e5" d="M 277.5,257.5 C 279.167,257.5 280.833,257.5 282.5,257.5C 282.5,261.833 282.5,266.167 282.5,270.5C 297.182,270.833 311.848,270.499 326.5,269.5C 325.181,267.468 325.181,265.468 326.5,263.5C 326.833,263.5 327.167,263.5 327.5,263.5C 327.833,263.5 328.167,263.5 328.5,263.5C 330.414,266.684 331.08,270.351 330.5,274.5C 308.167,274.5 285.833,274.5 263.5,274.5C 261.544,268.075 263.877,264.409 270.5,263.5C 270.635,265.554 269.968,267.221 268.5,268.5C 270.635,270.369 273.302,271.036 276.5,270.5C 277.485,266.366 277.818,262.032 277.5,257.5 Z M 268.5,268.5 C 269.833,268.5 271.167,268.5 272.5,268.5C 273.5,268.5 274.5,268.5 275.5,268.5C 276.338,268.842 276.672,269.508 276.5,270.5C 273.302,271.036 270.635,270.369 268.5,268.5 Z"/></g>
<g><path style="opacity:0.533" fill="#c9cdd0" d="M 325.5,257.5 C 325.784,259.415 325.451,261.081 324.5,262.5C 323.167,262.5 321.833,262.5 320.5,262.5C 320.5,260.833 320.5,259.167 320.5,257.5C 322.167,257.5 323.833,257.5 325.5,257.5 Z"/></g>
<g><path style="opacity:0.859" fill="#dddfe1" d="M 326.5,257.5 C 327.833,257.5 329.167,257.5 330.5,257.5C 330.923,259.781 330.256,261.448 328.5,262.5C 328.167,262.5 327.833,262.5 327.5,262.5C 326.549,261.081 326.216,259.415 326.5,257.5 Z"/></g>
<g><path style="opacity:0.974" fill="#e2e4e5" d="M 217.5,263.5 C 217.5,267.167 217.5,270.833 217.5,274.5C 202.152,274.167 186.819,274.501 171.5,275.5C 171.291,276.086 170.957,276.586 170.5,277C 167.854,277.497 165.187,277.664 162.5,277.5C 161.677,275.545 161.51,273.545 162,271.5C 163.731,274.302 165.898,274.969 168.5,273.5C 168.334,268.489 168.501,263.489 169,258.5C 170.699,257.594 172.533,257.261 174.5,257.5C 174.5,261.833 174.5,266.167 174.5,270.5C 187.167,270.5 199.833,270.5 212.5,270.5C 212.5,268.167 212.5,265.833 212.5,263.5C 214.167,263.5 215.833,263.5 217.5,263.5 Z"/></g>
<g><path style="opacity:0.972" fill="#e2e3e5" d="M 353.5,264.5 C 350.147,264.345 349.814,265.012 352.5,266.5C 352.833,266.5 353.167,266.5 353.5,266.5C 354.75,269.006 355.416,271.673 355.5,274.5C 349.441,274.746 343.441,274.413 337.5,273.5C 335.878,267.449 338.212,264.116 344.5,263.5C 344.5,265.167 344.5,266.833 344.5,268.5C 343.624,268.369 342.957,268.702 342.5,269.5C 343.614,270.776 344.614,270.776 345.5,269.5C 345.448,267.097 345.781,264.764 346.5,262.5C 348.32,260.552 350.654,259.552 353.5,259.5C 353.5,261.167 353.5,262.833 353.5,264.5 Z M 344.5,268.5 C 344.5,269.167 344.833,269.5 345.5,269.5C 344.614,270.776 343.614,270.776 342.5,269.5C 342.957,268.702 343.624,268.369 344.5,268.5 Z"/></g>
<g><path style="opacity:0.643" fill="#2c3657" d="M 144.5,253.5 C 141.802,258.14 143.135,261.473 148.5,263.5C 147.562,264.553 146.395,265.22 145,265.5C 142.792,264.063 140.626,262.73 138.5,261.5C 139.978,261.762 141.311,261.429 142.5,260.5C 140.864,257.362 141.53,255.029 144.5,253.5 Z"/></g>
<g><path style="opacity:0.086" fill="#1f2324" d="M 325.5,257.5 C 325.833,257.5 326.167,257.5 326.5,257.5C 326.216,259.415 326.549,261.081 327.5,262.5C 327.5,262.833 327.5,263.167 327.5,263.5C 327.167,263.5 326.833,263.5 326.5,263.5C 325.508,263.672 324.842,263.338 324.5,262.5C 325.451,261.081 325.784,259.415 325.5,257.5 Z"/></g>
<g><path style="opacity:0.988" fill="#5daf82" d="M 373.5,255.5 C 375.17,255.751 376.67,256.418 378,257.5C 378.333,257.167 378.667,256.833 379,256.5C 379.269,259.352 380.103,262.018 381.5,264.5C 384.948,265.614 386.948,267.947 387.5,271.5C 387.5,273.5 387.5,275.5 387.5,277.5C 385.608,285.06 380.941,290.06 373.5,292.5C 374.007,291.141 375.007,290.141 376.5,289.5C 375.349,288.269 374.183,288.269 373,289.5C 371.871,287.859 370.371,286.859 368.5,286.5C 370.139,285.527 371.473,284.194 372.5,282.5C 381.424,273.859 381.757,264.859 373.5,255.5 Z"/></g>
<g><path style="opacity:0.914" fill="#2a3658" d="M 132.5,255.5 C 131.365,257.745 130.865,260.078 131,262.5C 132.957,263.889 134.79,265.389 136.5,267C 136.167,267.5 135.833,268 135.5,268.5C 132.08,267.909 129.08,266.576 126.5,264.5C 127.873,264.657 129.207,264.49 130.5,264C 128.944,260.608 129.611,257.775 132.5,255.5 Z"/></g>
<g><path style="opacity:0.953" fill="#e4e6e7" d="M 254.5,264.5 C 254.427,266.027 255.094,267.027 256.5,267.5C 257.629,269.628 257.796,271.961 257,274.5C 256.292,275.381 255.458,276.047 254.5,276.5C 251.833,276.5 249.167,276.5 246.5,276.5C 245.833,276.5 245.5,276.167 245.5,275.5C 244.081,274.549 242.415,274.216 240.5,274.5C 240.5,275.5 240.5,276.5 240.5,277.5C 238.192,278.714 235.859,278.714 233.5,277.5C 236.433,275.262 236.099,274.262 232.5,274.5C 231.833,274.167 231.167,273.833 230.5,273.5C 230.5,270.833 230.5,268.167 230.5,265.5C 233.846,263.676 237.513,263.01 241.5,263.5C 241.337,265.857 241.503,268.19 242,270.5C 244.178,264.327 248.345,262.327 254.5,264.5 Z M 249.5,268.5 C 253.171,269.492 253.337,270.825 250,272.5C 249.235,272.43 248.735,272.097 248.5,271.5C 248.557,270.391 248.89,269.391 249.5,268.5 Z"/></g>
<g><path style="opacity:0.345" fill="#717679" d="M 346.5,262.5 C 345.781,264.764 345.448,267.097 345.5,269.5C 344.833,269.5 344.5,269.167 344.5,268.5C 344.5,266.833 344.5,265.167 344.5,263.5C 345.167,263.167 345.833,262.833 346.5,262.5 Z"/></g>
<g><path style="opacity:0.012" fill="#171a1d" d="M 353.5,264.5 C 353.167,265.167 352.833,265.833 352.5,266.5C 349.814,265.012 350.147,264.345 353.5,264.5 Z"/></g>
<g><path style="opacity:0.345" fill="#5d6064" d="M 254.5,264.5 C 255.906,264.973 256.573,265.973 256.5,267.5C 255.094,267.027 254.427,266.027 254.5,264.5 Z"/></g>
<g><path style="opacity:0.663" fill="#c2c6c9" d="M 275.5,263.5 C 275.423,264.75 274.756,265.583 273.5,266C 274.756,266.417 275.423,267.25 275.5,268.5C 274.5,268.5 273.5,268.5 272.5,268.5C 271.167,267.167 271.167,265.833 272.5,264.5C 273.209,263.596 274.209,263.263 275.5,263.5 Z"/></g>
<g><path style="opacity:0.071" fill="#646c6f" d="M 277.5,257.5 C 277.818,262.032 277.485,266.366 276.5,270.5C 276.672,269.508 276.338,268.842 275.5,268.5C 275.423,267.25 274.756,266.417 273.5,266C 274.756,265.583 275.423,264.75 275.5,263.5C 276.167,261.5 276.833,259.5 277.5,257.5 Z"/></g>
<g><path style="opacity:0.125" fill="#525a5d" d="M 270.5,263.5 C 271.167,263.833 271.833,264.167 272.5,264.5C 271.167,265.833 271.167,267.167 272.5,268.5C 271.167,268.5 269.833,268.5 268.5,268.5C 269.968,267.221 270.635,265.554 270.5,263.5 Z"/></g>
<g><path style="opacity:0.082" fill="#c5c8cc" d="M 356.5,258.5 C 358.167,258.5 359.833,258.5 361.5,258.5C 361.5,263.833 361.5,269.167 361.5,274.5C 359.833,274.5 358.167,274.5 356.5,274.5C 356.5,272.833 356.5,271.167 356.5,269.5C 356.5,265.833 356.5,262.167 356.5,258.5 Z"/></g>
<g><path style="opacity:0.984" fill="#fbfbfc" d="M 357.5,259.5 C 358.5,259.5 359.5,259.5 360.5,259.5C 360.5,264.167 360.5,268.833 360.5,273.5C 359.5,273.5 358.5,273.5 357.5,273.5C 357.5,268.833 357.5,264.167 357.5,259.5 Z"/></g>
<g><path style="opacity:0.114" fill="#3e454a" d="M 249.5,268.5 C 248.89,269.391 248.557,270.391 248.5,271.5C 247.115,270.053 247.448,269.053 249.5,268.5 Z"/></g>
<g><path style="opacity:0.6" fill="#28334c" d="M 121.5,271.5 C 125.347,272.06 125.847,273.06 123,274.5C 120.6,274.198 118.434,273.532 116.5,272.5C 118.415,272.784 120.081,272.451 121.5,271.5 Z"/></g>
<g><path style="opacity:0.871" fill="#b4b8bb" d="M 168.5,273.5 C 165.898,274.969 163.731,274.302 162,271.5C 161.51,273.545 161.677,275.545 162.5,277.5C 161.25,277.423 160.417,276.756 160,275.5C 159.506,273.866 159.34,272.199 159.5,270.5C 162.882,270.726 165.882,271.726 168.5,273.5 Z"/></g>
<g><path style="opacity:0.202" fill="#606669" d="M 217.5,263.5 C 217.833,263.5 218.167,263.5 218.5,263.5C 218.5,267.167 218.5,270.833 218.5,274.5C 221.833,274.5 225.167,274.5 228.5,274.5C 228.5,270.833 228.5,267.167 228.5,263.5C 229.833,263.5 230.5,264.167 230.5,265.5C 230.5,268.167 230.5,270.833 230.5,273.5C 211.517,275.16 192.184,276.16 172.5,276.5C 169.362,279.796 166.028,280.129 162.5,277.5C 165.187,277.664 167.854,277.497 170.5,277C 170.957,276.586 171.291,276.086 171.5,275.5C 186.819,274.501 202.152,274.167 217.5,274.5C 217.5,270.833 217.5,267.167 217.5,263.5 Z"/></g>
<g><path style="opacity:0.21" fill="#6a6e73" d="M 245.5,275.5 C 243.446,275.365 241.779,276.032 240.5,277.5C 240.5,276.5 240.5,275.5 240.5,274.5C 242.415,274.216 244.081,274.549 245.5,275.5 Z"/></g>
<g><path style="opacity:0.318" fill="#6a7075" d="M 330.5,257.5 C 331.49,263.31 331.823,269.31 331.5,275.5C 308.661,275.831 285.994,275.497 263.5,274.5C 285.833,274.5 308.167,274.5 330.5,274.5C 331.08,270.351 330.414,266.684 328.5,263.5C 328.5,263.167 328.5,262.833 328.5,262.5C 330.256,261.448 330.923,259.781 330.5,257.5 Z"/></g>
<g><path style="opacity:0.125" fill="#7c8387" d="M 353.5,266.5 C 354.728,267.306 355.728,268.306 356.5,269.5C 356.5,271.167 356.5,272.833 356.5,274.5C 358.167,274.5 359.833,274.5 361.5,274.5C 361.5,274.833 361.5,275.167 361.5,275.5C 358.5,275.5 355.5,275.5 352.5,275.5C 352.784,277.415 352.451,279.081 351.5,280.5C 349.901,280.768 348.568,280.434 347.5,279.5C 347.167,279.5 346.833,279.5 346.5,279.5C 346.5,278.5 346.5,277.5 346.5,276.5C 345.167,276.5 343.833,276.5 342.5,276.5C 340.58,275.935 338.913,274.935 337.5,273.5C 343.441,274.413 349.441,274.746 355.5,274.5C 355.416,271.673 354.75,269.006 353.5,266.5 Z"/></g>
<g><path style="opacity:0.561" fill="#74787b" d="M 246.5,276.5 C 249.167,276.5 251.833,276.5 254.5,276.5C 251.833,279.167 249.167,279.167 246.5,276.5 Z"/></g>
<g><path style="opacity:0.765" fill="#edeeef" d="M 347.5,279.5 C 347.5,278.5 347.5,277.5 347.5,276.5C 348.833,276.5 350.167,276.5 351.5,276.5C 351.5,277.5 351.5,278.5 351.5,279.5C 350.167,279.5 348.833,279.5 347.5,279.5 Z"/></g>
<g><path style="opacity:0.847" fill="#999da0" d="M 232.5,274.5 C 236.099,274.262 236.433,275.262 233.5,277.5C 235.859,278.714 238.192,278.714 240.5,277.5C 240.423,278.75 239.756,279.583 238.5,280C 233.052,281.413 231.052,279.58 232.5,274.5 Z"/></g>
<g><path style="opacity:1" fill="#559acf" d="M 130.5,277.5 C 138.657,278.329 146.99,278.829 155.5,279C 158.833,281.333 162.167,283.667 165.5,286C 184.83,286.5 204.164,286.667 223.5,286.5C 223.5,288.833 223.5,291.167 223.5,293.5C 204.497,293.333 185.497,293.5 166.5,294C 163.621,296.385 160.621,298.552 157.5,300.5C 148.5,300.5 139.5,300.5 130.5,300.5C 130.824,293.646 130.491,286.979 129.5,280.5C 129.5,280.167 129.5,279.833 129.5,279.5C 129.328,278.508 129.662,277.842 130.5,277.5 Z"/></g>
<g><path style="opacity:0.902" fill="#e8eaeb" d="M 228.5,276.5 C 228.5,277.833 228.5,279.167 228.5,280.5C 227.167,280.5 225.833,280.5 224.5,280.5C 224.5,279.167 224.5,277.833 224.5,276.5C 225.833,276.5 227.167,276.5 228.5,276.5 Z"/></g>
<g><path style="opacity:0.137" fill="#c4c8cb" d="M 342.5,276.5 C 343.833,276.5 345.167,276.5 346.5,276.5C 346.5,277.5 346.5,278.5 346.5,279.5C 346.5,280.167 346.167,280.5 345.5,280.5C 344.167,280.5 342.833,280.5 341.5,280.5C 341.232,278.901 341.566,277.568 342.5,276.5 Z"/></g>
<g><path style="opacity:0.271" fill="#737b7e" d="M 207.5,276.5 C 207.5,277.833 207.5,279.167 207.5,280.5C 208.833,280.5 210.167,280.5 211.5,280.5C 211.5,279.167 211.5,277.833 211.5,276.5C 211.833,276.5 212.167,276.5 212.5,276.5C 212.5,277.833 212.5,279.167 212.5,280.5C 213.833,280.5 215.167,280.5 216.5,280.5C 216.5,279.167 216.5,277.833 216.5,276.5C 217.451,277.919 217.784,279.585 217.5,281.5C 213.833,281.5 210.167,281.5 206.5,281.5C 206.216,279.585 206.549,277.919 207.5,276.5 Z"/></g>
<g><path style="opacity:0.931" fill="#e8e9eb" d="M 212.5,276.5 C 213.833,276.5 215.167,276.5 216.5,276.5C 216.5,277.833 216.5,279.167 216.5,280.5C 215.167,280.5 213.833,280.5 212.5,280.5C 212.5,279.167 212.5,277.833 212.5,276.5 Z"/></g>
<g><path style="opacity:0.612" fill="#ecedee" d="M 207.5,276.5 C 208.833,276.5 210.167,276.5 211.5,276.5C 211.5,277.833 211.5,279.167 211.5,280.5C 210.167,280.5 208.833,280.5 207.5,280.5C 207.5,279.167 207.5,277.833 207.5,276.5 Z"/></g>
<g><path style="opacity:0.314" fill="#5e6365" d="M 228.5,276.5 C 230.256,277.552 230.923,279.219 230.5,281.5C 228.265,281.795 226.265,281.461 224.5,280.5C 225.833,280.5 227.167,280.5 228.5,280.5C 228.5,279.167 228.5,277.833 228.5,276.5 Z"/></g>
<g><path style="opacity:0.021" fill="#050707" d="M 346.5,279.5 C 346.833,279.5 347.167,279.5 347.5,279.5C 348.568,280.434 349.901,280.768 351.5,280.5C 349.5,281.833 347.5,281.833 345.5,280.5C 346.167,280.5 346.5,280.167 346.5,279.5 Z"/></g>
<g><path style="opacity:1" fill="#f0f1f3" d="M 117.5,280.5 C 121.167,280.5 124.833,280.5 128.5,280.5C 128.5,286.5 128.5,292.5 128.5,298.5C 124.833,298.5 121.167,298.5 117.5,298.5C 117.5,292.5 117.5,286.5 117.5,280.5 Z"/></g>
<g><path style="opacity:0.515" fill="#739ead" d="M 130.5,277.5 C 139.506,277.334 148.506,277.5 157.5,278C 161.167,280.333 164.833,282.667 168.5,285C 190.671,285.057 212.671,285.224 234.5,285.5C 230.629,285.185 226.962,285.518 223.5,286.5C 204.164,286.667 184.83,286.5 165.5,286C 162.167,283.667 158.833,281.333 155.5,279C 146.99,278.829 138.657,278.329 130.5,277.5 Z"/></g>
<g><path style="opacity:0.456" fill="#7aaca1" d="M 372.5,282.5 C 371.473,284.194 370.139,285.527 368.5,286.5C 320.167,286.5 271.833,286.5 223.5,286.5C 226.962,285.518 230.629,285.185 234.5,285.5C 275.106,285.113 315.773,285.113 356.5,285.5C 362.202,285.96 367.536,284.96 372.5,282.5 Z"/></g>
<g><path style="opacity:1" fill="#61be89" d="M 223.5,286.5 C 271.833,286.5 320.167,286.5 368.5,286.5C 370.371,286.859 371.871,287.859 373,289.5C 374.183,288.269 375.349,288.269 376.5,289.5C 375.007,290.141 374.007,291.141 373.5,292.5C 370.5,292.5 367.5,292.5 364.5,292.5C 359.786,292.827 355.12,292.493 350.5,291.5C 350.709,290.914 351.043,290.414 351.5,290C 350.167,289.333 348.833,288.667 347.5,288C 332.837,287.5 318.17,287.333 303.5,287.5C 277.167,287.5 250.833,287.5 224.5,287.5C 224.5,289.5 224.5,291.5 224.5,293.5C 224.167,293.5 223.833,293.5 223.5,293.5C 223.5,291.167 223.5,288.833 223.5,286.5 Z"/></g>
<g><path style="opacity:1" fill="#3fb46e" d="M 303.5,287.5 C 304.625,289.129 305.959,290.629 307.5,292C 312.019,292.175 316.353,292.675 320.5,293.5C 288.5,293.5 256.5,293.5 224.5,293.5C 224.5,291.5 224.5,289.5 224.5,287.5C 250.833,287.5 277.167,287.5 303.5,287.5 Z"/></g>
<g><path style="opacity:1" fill="#54ba7d" d="M 303.5,287.5 C 318.17,287.333 332.837,287.5 347.5,288C 348.833,288.667 350.167,289.333 351.5,290C 351.043,290.414 350.709,290.914 350.5,291.5C 355.12,292.493 359.786,292.827 364.5,292.5C 350.01,293.496 335.343,293.829 320.5,293.5C 316.353,292.675 312.019,292.175 307.5,292C 305.959,290.629 304.625,289.129 303.5,287.5 Z"/></g>
<g><path style="opacity:0.999" fill="#666e73" d="M 117.5,280.5 C 121.298,279.517 125.298,279.183 129.5,279.5C 129.5,279.833 129.5,280.167 129.5,280.5C 129.5,286.5 129.5,292.5 129.5,298.5C 129.167,298.5 128.833,298.5 128.5,298.5C 128.5,292.5 128.5,286.5 128.5,280.5C 124.833,280.5 121.167,280.5 117.5,280.5 Z"/></g>
<g><path style="opacity:0.593" fill="#194e33" d="M 364.5,292.5 C 367.5,292.5 370.5,292.5 373.5,292.5C 371.438,293.776 369.104,294.61 366.5,295C 318.749,295.244 271.082,295.077 223.5,294.5C 223.5,294.167 223.5,293.833 223.5,293.5C 223.833,293.5 224.167,293.5 224.5,293.5C 256.5,293.5 288.5,293.5 320.5,293.5C 335.343,293.829 350.01,293.496 364.5,292.5 Z"/></g>
<g><path style="opacity:0.375" fill="#0c100f" d="M 117.5,280.5 C 117.5,286.5 117.5,292.5 117.5,298.5C 121.167,298.5 124.833,298.5 128.5,298.5C 128.833,298.5 129.167,298.5 129.5,298.5C 129.263,299.791 129.596,300.791 130.5,301.5C 138.984,302.493 147.651,302.826 156.5,302.5C 144.475,307.132 132.142,307.632 119.5,304C 118.299,303.097 117.465,301.931 117,300.5C 116.179,293.654 116.346,286.987 117.5,280.5 Z"/></g>
<g><path style="opacity:1" fill="#3875a7" d="M 129.5,280.5 C 130.491,286.979 130.824,293.646 130.5,300.5C 139.5,300.5 148.5,300.5 157.5,300.5C 148.682,301.493 139.682,301.827 130.5,301.5C 129.596,300.791 129.263,299.791 129.5,298.5C 129.5,292.5 129.5,286.5 129.5,280.5 Z"/></g>
<g><path style="opacity:0.698" fill="#1c374f" d="M 223.5,293.5 C 223.5,293.833 223.5,294.167 223.5,294.5C 204.83,294.333 186.164,294.5 167.5,295C 164.498,298.501 160.831,301.001 156.5,302.5C 147.651,302.826 138.984,302.493 130.5,301.5C 139.682,301.827 148.682,301.493 157.5,300.5C 160.621,298.552 163.621,296.385 166.5,294C 185.497,293.5 204.497,293.333 223.5,293.5 Z"/></g>
</svg>
